<?xml version="1.0" encoding="UTF-8" standalone="no"?>
<!-- Generator: Adobe Illustrator 12.0.0, SVG Export Plug-In . SVG Version: 6.00 Build 51448)  --><svg height="138.177" id="Layer_1" inkscape:version="0.42" sodipodi:docbase="F:\openclip\svg da inviare" sodipodi:docname="tasto09.svg" sodipodi:version="0.32" space="preserve" style="overflow:visible;enable-background:new 0 0 138.218 138.177;" version="1.1" viewBox="0 0 138.218 138.177" width="138.218" xmlns="http://www.w3.org/2000/svg" xmlns:cc="http://web.resource.org/cc/" xmlns:dc="http://purl.org/dc/elements/1.1/" xmlns:inkscape="http://www.inkscape.org/namespaces/inkscape" xmlns:rdf="http://www.w3.org/1999/02/22-rdf-syntax-ns#" xmlns:sodipodi="http://inkscape.sourceforge.net/DTD/sodipodi-0.dtd" xmlns:svg="http://www.w3.org/2000/svg">
  <metadata>
    <rdf:RDF xmlns:cc="http://web.resource.org/cc/" xmlns:dc="http://purl.org/dc/elements/1.1/" xmlns:rdf="http://www.w3.org/1999/02/22-rdf-syntax-ns#">
      <cc:Work rdf:about="">
        <dc:title>Tasto 9</dc:title>
        <dc:description></dc:description>
        <dc:subject>
          <rdf:Bag>
            <rdf:li>unsorted</rdf:li>
          </rdf:Bag>
        </dc:subject>
        <dc:publisher>
          <cc:Agent rdf:about="http://www.openclipart.org/">
            <dc:title>Open Clip Art Library</dc:title>
          </cc:Agent>
        </dc:publisher>
        <dc:creator>
          <cc:Agent>
            <dc:title>Architetto Francesco Rollandin</dc:title>
          </cc:Agent>
        </dc:creator>
        <dc:rights>
          <cc:Agent>
            <dc:title>Architetto Francesco Rollandin</dc:title>
          </cc:Agent>
        </dc:rights>
        <dc:date></dc:date>
        <dc:format>image/svg+xml</dc:format>
        <dc:type rdf:resource="http://purl.org/dc/dcmitype/StillImage"/>
        <cc:license rdf:resource="http://web.resource.org/cc/PublicDomain"/>
        <dc:language>en</dc:language>
      </cc:Work>
      <cc:License rdf:about="http://web.resource.org/cc/PublicDomain">
        <cc:permits rdf:resource="http://web.resource.org/cc/Reproduction"/>
        <cc:permits rdf:resource="http://web.resource.org/cc/Distribution"/>
        <cc:permits rdf:resource="http://web.resource.org/cc/DerivativeWorks"/>
      </cc:License>
    </rdf:RDF>
  </metadata>
  <defs id="defs27"/>
  <sodipodi:namedview bordercolor="#666666" borderopacity="1.0" id="base" inkscape:current-layer="Layer_1" inkscape:cx="69.109001" inkscape:cy="69.088501" inkscape:pageopacity="0.0" inkscape:pageshadow="2" inkscape:window-height="510" inkscape:window-width="787" inkscape:window-x="88" inkscape:window-y="116" inkscape:zoom="2.6053540" pagecolor="#ffffff"/>
  <g id="g3">
    <path d="M0,69.065c0,35.214,27.621,65.603,62.715,68.829c35.105,3.229,67.956-21.459,74.378-56.175   c6.42-34.713-15.243-69.677-49.261-79.215C53.803-7.039,17.033,11.489,4.483,44.521C1.512,52.344,0,60.697,0,69.065" id="path5" style="fill:#970F00;"/>
    <radialGradient cx="69.124" cy="69.0649" gradientUnits="userSpaceOnUse" id="XMLID_2_" r="64.2354">
      <stop id="stop8" offset="0" style="stop-color:#F28888"/>
      <stop id="stop10" offset="1" style="stop-color:#D82A2A"/>
    </radialGradient>
    <path d="M4.889,69.065c0,35.007,29.229,64.235,64.235,64.235c35.008,0,64.235-29.229,64.235-64.235   c0-35.006-29.228-64.235-64.235-64.235C34.118,4.83,4.889,34.059,4.889,69.065" id="path12" style="fill:url(#XMLID_2_);"/>
    <path d="M11.084,44.097c-5.19,30.251,12.878,60.639,41.932,70.538c30.815,10.499,65.49-5.02,78.377-34.867   c-6.193,36.122-43.333,59.869-78.723,50.318C16.131,120.227-3.976,78.937,11.084,44.097" id="path14" style="fill:#B20D0D;"/>
    <path d="M29.004,40.551c8.885,1.837,19.112-10.748,26.814-13.949c14.39-5.983,32.366-3.205,45.403,4.941   c13.79,8.616,23.599,25.164,25.107,41.411c0.005,0.046,0.005,0.056,0,0.025c-1.018-9.837-0.33-19.086-4.076-28.597   c-6.206-15.761-19.633-28.104-35.816-33.063c-16.735-5.126-35.035-1.864-49.452,7.907C32.533,22.243,15.398,37.734,29.004,40.551" id="path16" style="fill:#EF5656;"/>
    <path d="M41.353,38.912c-0.396,4.902,3.925,12.926,9.488,7.708c3.655-3.428,4.362-8.651,8.857-11.49   c7.583-4.786,24.909-1.813,24.563,9.629c-0.356,11.801-15.927,13.916-21.827,21.152c-3.735,4.579-4.019,11.782-3.05,17.342   c0.511,2.935,1.494,6.581,4.052,8.434c2.641,1.908,6.164,1.199,7.072-2.024c1.243-4.425,0.712-8.977,2.849-13.208   c3.343-6.62,9.775-7.196,15.583-10.534c11.126-6.394,12.723-22.137,7.223-32.742C85.968,13.519,43.432,13.074,41.353,38.912    M46.491,46.013c-4.311-0.616-3.367-7.666-2.37-10.537c1.396-4.024,4.237-7.436,7.752-9.8c10.194-6.852,26.994-6.67,36.593,1.146   c8.707,7.086,11.359,20.414,6.137,30.353c-5.745,10.929-20.963,8.967-24.467,22.222c-0.605,2.291-0.445,11.392-3.287,11.343   c-6.341-0.107-6.207-11.738-5.682-15.902c1.647-13.085,18.688-13.961,23.976-25.559c4.285-9.401-5.632-17.577-14.392-18.526   c-5.407-0.586-11.5,1.205-15.213,5.279C53.016,38.798,51.013,46.659,46.491,46.013" id="path18" style="fill:#970F00;"/>
    <path d="M55.374,106.917c0,14.765,21.217,14.765,21.217,0C76.591,92.153,55.374,92.153,55.374,106.917    M57.365,106.917c0-12.196,17.235-12.196,17.235,0C74.6,119.114,57.365,119.115,57.365,106.917" id="path20" style="fill:#970F00;"/>
    <path d="M85.041,66.535c-6.247,1.905-11.614,5.75-13.653,12.156c-1.122,3.524-0.268,9.059-2.459,12.088   c-2.731,3.771-6.946-2.063-7.731-4.354c-1.988-5.803-2.06-14.021,1.533-19.249c5.128-7.46,29.476-13.695,21.128-27.541   c-4.814-7.988-16.865-10.174-24.564-5.44c-3.408,2.094-10.824,18.911-15.827,10.756c-5.027-8.192,3.936-18.537,10.818-21.839   c12.104-5.81,29.911-4.283,38.571,6.794c6.45,8.247,7.407,20.938,1.413,29.706C92.043,62.871,88.831,65.377,85.041,66.535" id="path22" style="fill:#FFFFFF;"/>
    <path d="M75.597,106.917c0,13.483-19.229,13.483-19.229,0C56.367,93.435,75.597,93.435,75.597,106.917" id="path24" style="fill:#FFFFFF;"/>
  </g>
</svg>
